<svg xmlns="http://www.w3.org/2000/svg" width="26.761" height="26.811" viewBox="0 0 26.761 26.811">
  <g id="Call" transform="translate(0)">
    <g id="Group_6194" data-name="Group 6194" transform="translate(0 0)">
      <path id="Path_1393" data-name="Path 1393" d="M20.5,26.811a14.439,14.439,0,0,1-4.058-1.065,26.437,26.437,0,0,1-7.009-4.391,31.665,31.665,0,0,1-7.274-8.684A18.05,18.05,0,0,1,.047,7.05,2.02,2.02,0,0,1,.364,5.418,29.28,29.28,0,0,1,4.461.6,4.453,4.453,0,0,1,5,.178.692.692,0,0,1,6,.25a2.821,2.821,0,0,1,.423.461A36.581,36.581,0,0,1,9.681,6.132c.475,1,.425,1.192-.4,1.929q-.868.777-1.743,1.547a.349.349,0,0,0-.111.417,13.61,13.61,0,0,0,4.4,6.656A13.063,13.063,0,0,0,16.7,19.328a.414.414,0,0,0,.492-.136c.464-.534.94-1.057,1.4-1.591.837-.964,1.01-1.015,2.162-.458A35.568,35.568,0,0,1,25.994,20.3c.962.691,1,1.087.214,1.949a26.2,26.2,0,0,1-5.116,4.291,3.578,3.578,0,0,1-.6.267" transform="translate(0.001 0)" fill="#000"/>
      <path id="Path_1394" data-name="Path 1394" d="M191.944,12.766H190.05A10.592,10.592,0,0,0,179.533,2.242V.373a12.4,12.4,0,0,1,12.411,12.394" transform="translate(-165.189 -0.338)" fill="#000"/>
      <path id="Path_1395" data-name="Path 1395" d="M187.121,67.857h-1.864a5.831,5.831,0,0,0-5.75-5.746V60.247a7.585,7.585,0,0,1,7.613,7.61" transform="translate(-165.166 -55.43)" fill="#000"/>
    </g>
  </g>
</svg>
