<svg xmlns="http://www.w3.org/2000/svg" width="44.265" height="34.917" viewBox="0 0 44.265 34.917">
  <g id="Chat_Green" transform="translate(-209.909 -1032.969)">
    <path id="Path_7" data-name="Path 7" d="M214.489,1057.6a28.584,28.584,0,0,1-2.953-1.254,3.076,3.076,0,0,1-1.627-2.922c.041-5.069.016-10.139.016-15.209a4.705,4.705,0,0,1,3.527-4.9,6.3,6.3,0,0,1,1.939-.33q13.519-.031,27.038-.012a4.7,4.7,0,0,1,4.917,4.94q0,7.6,0,15.209a3.894,3.894,0,0,1-3.732,4.229,13.666,13.666,0,0,1-1.723.1c-6.162.007-12.324-.007-18.486.023a3.427,3.427,0,0,0-1.613.435c-2.843,1.625-5.657,3.3-8.691,5.088Zm4.832-15.483a2.466,2.466,0,1,0,2.507,2.42A2.475,2.475,0,0,0,219.322,1042.113Zm9.339,0a2.465,2.465,0,1,0-.006,4.93,2.465,2.465,0,0,0,.006-4.93Zm6.81,2.456a2.461,2.461,0,1,0,2.468-2.454A2.428,2.428,0,0,0,235.47,1044.569Z" fill="#aed640"/>
    <path id="Path_8" data-name="Path 8" d="M281.813,1103.791h1.282q10.966,0,21.932,0c2.984,0,4.3-1.317,4.3-4.325q.009-5.96,0-11.92v-.911c2.855-.5,4.319.691,4.322,3.438q.007,7,0,13.993c0,.259,0,.519-.018.777-.156,1.977-1.073,2.938-3.311,3.363l.946,3.982a28.526,28.526,0,0,1-2.765-1.642,12.894,12.894,0,0,0-8.944-2.487c-4.276.232-8.574.043-12.863.062a4.484,4.484,0,0,1-4.169-2.119A10.467,10.467,0,0,1,281.813,1103.791Z" transform="translate(-59.48 -44.302)" fill="#aed640"/>
  </g>
</svg>
