<svg xmlns="http://www.w3.org/2000/svg" width="39.049" height="39.059" viewBox="0 0 39.049 39.059">
  <g id="Data_Collection" transform="translate(-5754.13 -2266.405)">
    <path id="Path_22123" data-name="Path 22123" d="M5837.572,2452.061c-2.158,0-4.316,0-6.474,0-1.039,0-1.451-.387-1.455-1.407q-.016-4.913,0-9.826c0-1.031.41-1.422,1.436-1.427,1.294-.006,2.592-.057,3.882.026a2.182,2.182,0,0,1,1.452.6,4.219,4.219,0,0,0,4.155,1.688,29.713,29.713,0,0,1,3.729-.025c.931.008,1.352.409,1.357,1.349q.022,3.847,0,7.693c-.006.927-.436,1.325-1.378,1.328C5842.039,2452.066,5839.806,2452.061,5837.572,2452.061Z" transform="translate(-63.993 -146.598)" fill="#fff"/>
    <path id="Path_22124" data-name="Path 22124" d="M5765.69,2286.293a4.393,4.393,0,0,1,1.292-.317,1.092,1.092,0,0,1,.68,1.808,29.7,29.7,0,0,1-2.48,2.475,1.069,1.069,0,0,1-1.57-.166q-1.006-.989-2-2c-.6-.614-.694-1.244-.266-1.753s.959-.523,1.7-.066a1.428,1.428,0,0,0,.2.085c.177-.894-.1-1.378-.868-1.543-2.872-.616-3.458-1.3-3.609-4.238,0-.075-.025-.15-.064-.366-.952,0-1.93.009-2.908,0-.327,0-.748.046-.957-.129a1.744,1.744,0,0,1-.68-1.07c-.048-3.813-.035-7.627-.023-11.44a1.039,1.039,0,0,1,1.006-1.137c1.185-.06,2.375-.017,3.642-.017,0,1.737,0,3.41,0,5.083,0,1.489.286,1.77,1.785,1.77h5.078v4.5c0,2.44-.008,2.448-2.488,2.448h-1.947c-.4,1.559-.036,2.143,1.4,2.322a3.37,3.37,0,0,1,3,3.061C5765.645,2285.85,5765.67,2286.1,5765.69,2286.293Z" transform="translate(0 0)" fill="#fff"/>
    <path id="Path_22125" data-name="Path 22125" d="M5933.562,2273.294c0,2.017.022,3.943-.012,5.868-.013.694-.5,1.058-1.317,1.072-1.062.018-2.124,0-3.266,0-.021.436-.036.806-.057,1.175a3.389,3.389,0,0,1-3.176,3.379c-1.14.138-1.444.5-1.315,1.562.047.006.108.032.139.012.831-.527,1.384-.52,1.815.027.417.529.3,1.141-.363,1.807-.626.631-1.246,1.269-1.889,1.883a1.156,1.156,0,0,1-1.86-.013c-.6-.58-1.188-1.182-1.78-1.775-.756-.758-.9-1.363-.449-1.914s.98-.54,1.96.043c.037-.32.068-.61.1-.9a3.378,3.378,0,0,1,2.859-2.945c1.579-.231,1.851-.61,1.574-2.339-.934,0-1.889,0-2.844,0-1.3-.005-1.631-.332-1.633-1.621q-.006-5.3,0-10.592c0-1.236.36-1.594,1.576-1.6.914,0,1.829,0,2.743.008a1.688,1.688,0,0,1,.262.064v1.614c0,1.194,0,2.388,0,3.582.005,1.239.357,1.594,1.575,1.595C5929.957,2273.3,5931.707,2273.294,5933.562,2273.294Z" transform="translate(-140.39 -0.021)" fill="#fff"/>
    <path id="Path_22126" data-name="Path 22126" d="M5849.194,2266.427c0,1.792,0,3.49,0,5.188,0,1.344.33,1.675,1.648,1.676,1.7,0,3.4,0,5.214,0v2.987c0,.864.013,1.729-.005,2.592-.02.952-.4,1.343-1.352,1.361-1.035.019-2.071,0-3.162,0v6.205c.168-.1.271-.162.368-.229a1.1,1.1,0,0,1,1.572.148,1.151,1.151,0,0,1-.143,1.641c-.687.714-1.385,1.418-2.1,2.1a1.136,1.136,0,0,1-1.805-.009c-.68-.65-1.338-1.322-2-1.993a1.223,1.223,0,0,1-.286-1.695c.412-.543.959-.573,1.75-.1a1.276,1.276,0,0,0,.249.078v-6.148c-.441,0-.861,0-1.281,0-3.451.029-3.269.173-3.254-3.284.012-2.9,0-5.794,0-8.692,0-1.561.269-1.834,1.8-1.834Z" transform="translate(-76.679 -0.018)" fill="#fff"/>
    <path id="Path_22127" data-name="Path 22127" d="M5980.012,2272.134v-4.376a5.527,5.527,0,0,1,4.442,4.376h-4.442Z" transform="translate(-191.441 -1.146)" fill="#fff"/>
    <path id="Path_22128" data-name="Path 22128" d="M5804.353,2272.361h-4.3v-4.3C5801.874,2268.015,5804.2,2270.321,5804.353,2272.361Z" transform="translate(-38.918 -1.4)" fill="#fff"/>
    <path id="Path_22129" data-name="Path 22129" d="M5889.883,2272.277v-4.287c1.88.024,4.013,2.107,4.36,4.287Z" transform="translate(-115.054 -1.343)" fill="#fff"/>
  </g>
</svg>
