<svg xmlns="http://www.w3.org/2000/svg" width="38.489" height="23.33" viewBox="0 0 38.489 23.33">
  <g id="Edu" transform="translate(14.097 -512.5)">
    <path id="Path_1075" data-name="Path 1075" d="M6.169,512.5a10.465,10.465,0,0,0,1.748.938q8.053,4,16.112,7.988c.122.061.28.079.362.29l-4.716,1.843c-1.113.435-2.232.853-3.334,1.312a.75.75,0,0,1-.908-.168c-3.066-2.632-6.543-4.188-10.67-3.866a18.558,18.558,0,0,0-7.541,2.54c-.778.431-1.53.916-2.266,1.416a.81.81,0,0,1-.892.072c-.759-.336-1.539-.621-2.3-.951-.36-.156-.456-.061-.45.312.016.973.011,1.946,0,2.919a.6.6,0,0,0,.317.585,1.19,1.19,0,0,1-.012,2.06.452.452,0,0,0-.2.6c.273,1.038.5,2.088.8,3.118.14.482-.023.566-.444.551-.547-.02-1.1-.022-1.642,0-.428.018-.579-.089-.463-.557.254-1.02.446-2.056.675-3.082a.614.614,0,0,0-.209-.686,1.211,1.211,0,0,1-.041-1.832,1.22,1.22,0,0,0,.359-.975c-.015-.993-.021-1.987,0-2.979a.653.653,0,0,0-.485-.719c-1.324-.532-2.633-1.1-4.061-1.7.577-.268,1.046-.493,1.521-.7q9.1-4.049,18.2-8.1c.145-.065.279-.153.419-.231Z" fill="#fff"/>
    <path id="Path_1076" data-name="Path 1076" d="M74.2,605.547c0-1.013.027-2.027-.012-3.038a1.189,1.189,0,0,1,.564-1.111,13.482,13.482,0,0,1,6.445-2.489,14.733,14.733,0,0,1,9.209,1.738c1.789,1.008,1.786,1.013,1.786,3.039,0,1.62-.031,3.242.016,4.861a1.072,1.072,0,0,1-.69,1.122,17.277,17.277,0,0,1-6.322,1.815,19.181,19.181,0,0,1-8.4-.793,9.529,9.529,0,0,1-2.219-1.11.8.8,0,0,1-.388-.753C74.214,607.735,74.2,606.641,74.2,605.547Zm9.389,4.763a20.759,20.759,0,0,0,3.257-.292,8.869,8.869,0,0,0,2.95-.889c.306-.169.625-.369.6-.769-.025-.365-.344-.538-.642-.666a8.783,8.783,0,0,0-1.253-.452,23.6,23.6,0,0,0-9.341-.353,8.775,8.775,0,0,0-2.9.832c-.782.415-.788.913-.031,1.384a4.809,4.809,0,0,0,1.167.5A21.672,21.672,0,0,0,83.592,610.311Z" transform="translate(-77.547 -75.789)" fill="#aed640"/>
  </g>
</svg>
