<svg xmlns="http://www.w3.org/2000/svg" width="37.071" height="26.052" viewBox="0 0 37.071 26.052">
  <g id="Email" transform="translate(0)">
    <path id="Path_11" data-name="Path 11" d="M-703.115,915.443a3.645,3.645,0,0,0-.677.428q-6.679,6.618-13.343,13.252c-1.865,1.853-3.586,1.854-5.449,0q-6.67-6.628-13.343-13.252a3.747,3.747,0,0,0-.673-.431l.153-.288a9,9,0,0,1,1.393-.216q15.193-.019,30.385,0a9.075,9.075,0,0,1,1.4.215Z" transform="translate(738.396 -914.928)" fill="#fff"/>
    <path id="Path_12" data-name="Path 12" d="M-713.071,1015.348l11.075,11.3a7.3,7.3,0,0,1-1.278.212q-15.228.02-30.456,0a7.952,7.952,0,0,1-1.279-.2l11.078-11.306c1.528,1.645,3.026,3.223,5.471,3.2C-716.053,1018.542-714.571,1016.988-713.071,1015.348Z" transform="translate(737.034 -1000.819)" fill="#fff"/>
    <path id="Path_13" data-name="Path 13" d="M-737.77,938.954l-10.993,11.169a10.257,10.257,0,0,1-.237-1.5q-.022-9.685,0-19.371a10.549,10.549,0,0,1,.225-1.494Z" transform="translate(749.011 -925.902)" fill="#fff"/>
    <path id="Path_14" data-name="Path 14" d="M-559.767,927.148a11.777,11.777,0,0,1,.238,1.585q.021,9.685,0,19.371a10.183,10.183,0,0,1-.239,1.5l-11.039-11.219Z" transform="translate(596.589 -925.38)" fill="#fff"/>
  </g>
</svg>
