<svg xmlns="http://www.w3.org/2000/svg" width="28.717" height="28.718" viewBox="0 0 28.717 28.718">
  <g id="Energy" transform="translate(-126.802 -216.756)">
    <path id="Path_1072" data-name="Path 1072" d="M245.391,242.124q-1.241,0-2.482,0c-.453,0-.62-.162-.62-.605,0-1.675,0-3.35,0-5.025a.52.52,0,0,1,.31-.557.51.51,0,0,1,.586.179c.414.418.839.826,1.243,1.252.158.167.224.139.338-.043a11.493,11.493,0,0,0-14.032-16.834c-.1.04-.2.09-.3.125a.47.47,0,0,1-.631-.243q-.426-.822-.828-1.657c-.158-.33-.059-.557.293-.718a13.639,13.639,0,0,1,4.395-1.172,14.349,14.349,0,0,1,13.178,22.537c-.14.2-.117.3.051.465.477.453.933.928,1.4,1.391a.514.514,0,0,1,.181.611.525.525,0,0,1-.566.3C247.065,242.121,246.228,242.124,245.391,242.124Z" transform="translate(-93.95)" fill="#aed640"/>
    <path id="Path_1073" data-name="Path 1073" d="M130.882,258.729c.837,0,1.675,0,2.512,0,.412,0,.582.17.583.581,0,1.685,0,3.37,0,5.055a.5.5,0,0,1-.9.367c-.407-.411-.824-.812-1.224-1.229-.15-.156-.224-.195-.361.024a11.339,11.339,0,0,0-1.781,7.087,11.473,11.473,0,0,0,10.441,10.56,11.36,11.36,0,0,0,5.547-.887c.419-.178.621-.1.824.3q.371.733.734,1.469c.2.4.12.636-.286.813a14.362,14.362,0,0,1-15.815-2.843,13.926,13.926,0,0,1-4.246-8.552,14.074,14.074,0,0,1,2.533-10.018c.114-.163.116-.256-.029-.4-.488-.471-.961-.956-1.443-1.433a.5.5,0,0,1,.367-.9C129.187,258.731,130.034,258.729,130.882,258.729Z" transform="translate(0 -38.622)" fill="#aed640"/>
    <path id="Path_1074" data-name="Path 1074" d="M243.087,304.8c-.568,0-1.137,0-1.7,0-.509,0-.722-.376-.452-.8q2.82-4.476,5.646-8.948a.488.488,0,0,1,.6-.271.5.5,0,0,1,.33.6c-.132,1.659-.258,3.319-.395,4.978-.051.621-.062.621.557.621,1.017,0,2.034,0,3.051,0a.553.553,0,0,1,.56.259.533.533,0,0,1-.079.586q-2.8,4.433-5.6,8.869c-.151.239-.328.413-.634.305s-.339-.353-.317-.634q.2-2.519.4-5.037c.041-.516.043-.516-.459-.516Z" transform="translate(-104.916 -71.768)" fill="#fff"/>
  </g>
</svg>
