<svg xmlns="http://www.w3.org/2000/svg" width="29.358" height="32.878" viewBox="0 0 29.358 32.878">
  <g id="Financial" transform="translate(-40.851 -487.994)">
    <path id="Path_1077" data-name="Path 1077" d="M123.51,496.112a8.111,8.111,0,1,1,8.119,8.1A8.112,8.112,0,0,1,123.51,496.112Zm8.785-1.786a3.086,3.086,0,0,1,0-.386c.031-.245-.136-.623.094-.706.308-.112.582.184.814.406a.762.762,0,0,1,.238.446c.078.533.3.95.921.762s.54-.7.4-1.178a2.707,2.707,0,0,0-1.871-1.8c-.321-.114-.64-.146-.648-.63-.006-.33-.32-.5-.65-.5a.557.557,0,0,0-.609.471c-.024.486-.34.541-.691.674a2.523,2.523,0,0,0-1.9,2.2,2.2,2.2,0,0,0,1.594,2.313c.905.275,1.037.773.94,1.536-.011.085.01.173,0,.257-.042.265.146.694-.121.763-.352.091-.682-.217-.88-.533a3.629,3.629,0,0,1-.223-.663.654.654,0,0,0-.985-.372c-.435.276-.381.7-.272,1.1a2.709,2.709,0,0,0,1.967,1.861c.31.1.531.186.552.573a.588.588,0,0,0,.622.54c.3.017.632-.141.635-.427.007-.57.4-.612.778-.752a2.537,2.537,0,0,0,1.842-2.312,2.378,2.378,0,0,0-1.793-2.261.914.914,0,0,1-.76-1.19A1.467,1.467,0,0,0,132.3,494.326Z" transform="translate(-72.011 0)" fill="#aed640"/>
    <path id="Path_1078" data-name="Path 1078" d="M95.24,631.849h4.891a1.251,1.251,0,0,1,1.208.7,1.2,1.2,0,0,1-.093,1.281,1.286,1.286,0,0,1-1.165.55c-1.437-.007-2.875,0-4.312,0a3.213,3.213,0,0,0-.514.016.654.654,0,0,0-.628.69.638.638,0,0,0,.7.678c1.716.005,3.433.016,5.148-.015a2.09,2.09,0,0,0,1.541-.711,5,5,0,0,1,1.338-.976c1.6-.921,3.19-1.847,4.787-2.766.839-.483,1.563-.368,1.971.3a1.331,1.331,0,0,1-.6,1.861q-5.19,3.4-10.387,6.794a1.458,1.458,0,0,1-.853.213c-1.952,0-3.9,0-5.856-.007a1.811,1.811,0,0,0-1.214.319c-.252.2-.424.182-.6-.128q-1.8-3.155-3.633-6.291c-.147-.252-.143-.4.118-.568.875-.58,1.737-1.181,2.6-1.785a1.185,1.185,0,0,1,.737-.162H95.24Z" transform="translate(-40.086 -124.588)" fill="#fff"/>
    <path id="Path_1079" data-name="Path 1079" d="M44.482,648.1c.2,0,.238.168.309.289q2.754,4.761,5.507,9.522c.153.263.138.392-.138.546-1.048.585-2.09,1.183-3.119,1.8-.31.186-.431.082-.584-.186q-2.725-4.741-5.464-9.473c-.1-.174-.276-.345.034-.521,1.1-.622,2.194-1.26,3.29-1.892C44.372,648.155,44.429,648.126,44.482,648.1Z" transform="translate(0 -139.48)" fill="#fff"/>
    <path id="Path_1080" data-name="Path 1080" d="M173.28,529.513a.669.669,0,0,1,0,.127c-.058.293.176.729-.16.852-.277.1-.583-.2-.79-.451a.778.778,0,0,1-.054-1,.45.45,0,0,1,.037-.052c.231-.261.53-.567.844-.484.259.069.086.49.122.753A1.9,1.9,0,0,1,173.28,529.513Z" transform="translate(-114.358 -35.281)" fill="#aed640"/>
    <path id="Path_1081" data-name="Path 1081" d="M191.527,558.47a.721.721,0,0,1,0-.128c.052-.281-.159-.676.121-.822.223-.116.5.156.715.336a.829.829,0,0,1,.077,1.243c-.23.22-.5.52-.812.4-.234-.091-.067-.463-.1-.707A2.488,2.488,0,0,1,191.527,558.47Z" transform="translate(-131.243 -60.545)" fill="#aed640"/>
  </g>
</svg>
