<svg xmlns="http://www.w3.org/2000/svg" width="26.262" height="26.336" viewBox="0 0 26.262 26.336">
  <g id="Header_Call" transform="translate(-1301.738 -383.842)">
    <path id="Path_1" data-name="Path 1" d="M1321.569,410.178c-1.146-.348-2.407-.63-3.589-1.109a28.13,28.13,0,0,1-10.431-7.726,23.252,23.252,0,0,1-5.213-8.711c-.907-3.05-.905-2.561.865-4.867a36.5,36.5,0,0,1,3.1-3.417c.718-.724,1.2-.678,1.752.187q1.683,2.629,3.216,5.353c.52.924.409,1.161-.376,1.855-.453.4-.9.807-1.378,1.177a.921.921,0,0,0-.317,1.2,13.6,13.6,0,0,0,6.531,7.636,16.361,16.361,0,0,0,2.315.95.746.746,0,0,0,.64-.16c.519-.526.984-1.106,1.479-1.657.622-.692.887-.817,1.665-.377q2.817,1.6,5.551,3.338c.792.506.8.935.186,1.634a24.356,24.356,0,0,1-5.217,4.393A4.894,4.894,0,0,1,1321.569,410.178Z" fill="#fff"/>
    <path id="Path_2" data-name="Path 2" d="M1434.361,396.525h-1.794a10.391,10.391,0,0,0-10.288-10.288v-1.8A12.02,12.02,0,0,1,1434.361,396.525Z" transform="translate(-106.433 -0.519)" fill="#fff"/>
    <path id="Path_3" data-name="Path 3" d="M1422.176,426.27V424.5a7.327,7.327,0,0,1,7.43,7.384h-1.776C1427.213,428.267,1425.521,426.577,1422.176,426.27Z" transform="translate(-106.342 -35.88)" fill="#fff"/>
  </g>
</svg>
