<svg xmlns="http://www.w3.org/2000/svg" width="29.628" height="25.06" viewBox="0 0 29.628 25.06">
  <g id="Healthcare" transform="translate(0)">
    <path id="Path_1038" data-name="Path 1038" d="M-1318.078,1213h-6.757c-.014-.169-.04-.333-.04-.5,0-1.967-.03-3.934.02-5.9a9.09,9.09,0,0,1,.356-2.325,4.647,4.647,0,0,1,2.933-3.133,5.8,5.8,0,0,0,2.245-1.57,13.586,13.586,0,0,1,1.187-1.182,3.716,3.716,0,0,1,.984-.585,1.542,1.542,0,0,1,1.72.3,1.545,1.545,0,0,1,.464,1.737,3.721,3.721,0,0,1-.741,1.212c-.659.728-1.387,1.393-2.072,2.1a1.1,1.1,0,0,0-.089,1.628c.114-.094.235-.177.338-.279.875-.87,1.744-1.745,2.62-2.615a3.644,3.644,0,0,0,1.162-2.326c.118-1.468-.7-2.493-2.378-3.02-.017-.033-.052-.069-.047-.1.229-1.558.412-3.125.717-4.669a6.5,6.5,0,0,1,.8-1.954,1.314,1.314,0,0,1,1.532-.659c.52.163.77.612.77,1.4,0,3.856-.008,7.713.006,11.569a3.266,3.266,0,0,1-1.032,2.479c-1.23,1.2-2.43,2.423-3.664,3.614a3.235,3.235,0,0,0-1.043,2.644C-1318.047,1211.557-1318.078,1212.248-1318.078,1213Z" transform="translate(1341.974 -1187.941)" fill="#fff"/>
    <path id="Path_1039" data-name="Path 1039" d="M-1460.195,1212.918h-6.74a11.158,11.158,0,0,1,.009-1.432,4.14,4.14,0,0,0-1.546-3.886c-1.1-.965-2.091-2.051-3.146-3.068a3.251,3.251,0,0,1-1.035-2.478q.022-5.813,0-11.626a1.253,1.253,0,0,1,.717-1.325,1.2,1.2,0,0,1,1.507.546,8.126,8.126,0,0,1,.952,2.379c.282,1.445.389,2.924.575,4.432.022-.013-.023.029-.074.039a2.855,2.855,0,0,0-1.512,4.808,39.768,39.768,0,0,0,3.4,3.291,1.008,1.008,0,0,0-.126-1.521c-.7-.72-1.464-1.379-2.1-2.146a3.269,3.269,0,0,1-.756-1.56,1.582,1.582,0,0,1,2.168-1.664,4.228,4.228,0,0,1,1.212.755c.426.357.755.83,1.183,1.184a7.061,7.061,0,0,0,1.768,1.253,5.019,5.019,0,0,1,3.51,4.465C-1460.062,1207.852-1460.195,1210.362-1460.195,1212.918Z" transform="translate(1472.652 -1187.858)" fill="#fff"/>
    <path id="Path_1040" data-name="Path 1040" d="M-1403.646,1192.7c-.112-.088-.176-.129-.228-.181-2.112-2.112-4.252-4.2-6.326-6.347a4.179,4.179,0,0,1,1.342-6.786,4.283,4.283,0,0,1,4.588.785c.193.159.367.341.593.553.2-.181.381-.366.582-.535a4.278,4.278,0,0,1,4.422-.871,3.974,3.974,0,0,1,2.7,3.451,4.023,4.023,0,0,1-.986,3.217c-.186.221-.395.422-.6.626C-1399.578,1188.626-1401.594,1190.643-1403.646,1192.7Z" transform="translate(1418.486 -1179.032)" fill="#aed640"/>
  </g>
</svg>
