<svg xmlns="http://www.w3.org/2000/svg" width="28.718" height="28.716" viewBox="0 0 28.718 28.716">
  <g id="Home_Services" transform="translate(0)">
    <path id="Path_1048" data-name="Path 1048" d="M-1314.5,1590.284h-14.33v4.066c-1.123,0-2.2,0-3.277,0a.226.226,0,0,1-.162-.084c-.686-1.013-1.728-.957-2.763-.929-.315.008-.63,0-1,0,0-1.1-.034-2.145.014-3.183a.939.939,0,0,1,.979-.913,5.111,5.111,0,0,1,1.023,0c.555.076.817-.131,1.021-.662a.752.752,0,0,0-.224-.982c-1.479-1.343-1.433-1.673,0-3.04,1.143-1.089,2.237-2.231,3.357-3.345a1.12,1.12,0,0,1,1.862.006,6.751,6.751,0,0,1,.584.592c.281.354.547.368.984.212.551-.2.666-.488.656-1.027-.033-1.927.072-2.012,2.007-2.012,1.644,0,3.288,0,4.932,0,.879,0,1.24.368,1.251,1.243a4.953,4.953,0,0,1-.005.768.825.825,0,0,0,.651,1.027.78.78,0,0,0,.986-.208c1.5-1.515,1.541-1.506,3.033-.013q1.675,1.676,3.351,3.351a1.122,1.122,0,0,1,.008,1.863,7.265,7.265,0,0,1-.592.585.729.729,0,0,0-.224.982.89.89,0,0,0,1.021.667c1.934-.036,2.022.074,2.022,2v4.055a3.53,3.53,0,0,0-4.012-.541c-.819.412-1.617.865-2.426,1.3-.219.117-.443.225-.731.371Zm-7.218-1.052c2.644,0,5.289-.007,7.933.005.585,0,1.078-.122,1.269-.734s-.153-1-.647-1.308q-3.88-2.416-7.75-4.848a1.29,1.29,0,0,0-1.538,0q-3.862,2.444-7.749,4.848c-.494.308-.846.685-.654,1.3s.68.741,1.266.739C-1326.969,1589.225-1324.346,1589.232-1321.723,1589.232Z" transform="translate(1336.045 -1578.979)" fill="#aed640"/>
    <path id="Path_1049" data-name="Path 1049" d="M-1303.763,1716.783v-10.075c.947,0,1.905.075,2.847-.019a2.845,2.845,0,0,1,2.827,1.2,2.168,2.168,0,0,0,2.091.891c1.256-.071,2.519-.022,3.778-.017a1.568,1.568,0,0,1,1.751,1.538,1.566,1.566,0,0,1-1.751,1.535q-1.825.006-3.651,0c-.366,0-.728.036-.739.5s.336.527.711.526c1.3,0,2.605.011,3.907-.006a2.566,2.566,0,0,0,2.439-1.832,1.264,1.264,0,0,1,.532-.635c2.036-1.122,4.085-2.22,6.136-3.313a2.424,2.424,0,0,1,3.353.813,2.406,2.406,0,0,1-.888,3.331q-5.035,3.353-10.082,6.688a6.846,6.846,0,0,1-5.9.785c-1.393-.4-2.757-.9-4.156-1.273C-1301.586,1717.142-1302.655,1717-1303.763,1716.783Z" transform="translate(1307.9 -1690.306)" fill="#fff"/>
    <path id="Path_1050" data-name="Path 1050" d="M-1335.765,1711.262v-12.3c.728,0,1.428-.032,2.124.01.589.036.918.482.92,1.172.006,2.026,0,4.053,0,6.079,0,1.28.006,2.56,0,3.839a1.047,1.047,0,0,1-1.168,1.194C-1334.5,1711.27-1335.116,1711.262-1335.765,1711.262Z" transform="translate(1335.801 -1683.58)" fill="#fff"/>
    <path id="Path_1051" data-name="Path 1051" d="M-1240.025,1680c0-1.391-.015-2.733.007-4.073a.979.979,0,0,1,1.024-1c.681-.023,1.365-.024,2.046,0a.981.981,0,0,1,1.015,1.014c.022,1.34.007,2.68.007,4.063Z" transform="translate(1252.334 -1662.616)" fill="#aed640"/>
  </g>
</svg>
