<svg xmlns="http://www.w3.org/2000/svg" width="31.661" height="26.051" viewBox="0 0 31.661 26.051">
  <g id="Legal" transform="translate(0)">
    <path id="Path_1030" data-name="Path 1030" d="M-1670.707,905.619c.169-.559.169-.559-1.03-1.436l-1.586,2.481-7.544-4.788,3.925-6.182,7.543,4.788-1.584,2.513,1.427.679.185-.4a1.318,1.318,0,0,1,.247.04,97.764,97.764,0,0,1,12.042,7.2,2.829,2.829,0,0,1,1.205,2.5.745.745,0,0,1-.343.547,2.759,2.759,0,0,1-2.718.017,96.168,96.168,0,0,1-11.7-7.864A.419.419,0,0,1-1670.707,905.619Z" transform="translate(1687.535 -891.733)" fill="#fff"/>
    <path id="Path_1031" data-name="Path 1031" d="M-1721.952,1042.182h1.561v2.4H-1734.7v-2.394h1.551c0-.171,0-.271,0-.371-.042-.865.354-1.37,1.2-1.377q4.4-.034,8.792,0C-1722.2,1040.445-1721.817,1041.018-1721.952,1042.182Z" transform="translate(1734.698 -1018.529)" fill="#aed640"/>
    <path id="Path_1032" data-name="Path 1032" d="M-1694.185,959.367a2.531,2.531,0,0,1-1.078,1.87,1.416,1.416,0,0,1-1.61-.206q-3.405-2.184-6.83-4.338c-.556-.35-.943-.807-.752-1.473.2-.694.513-1.4,1.327-1.553a1.6,1.6,0,0,1,1.041.21q3.621,2.247,7.193,4.572A3.3,3.3,0,0,1-1694.185,959.367Z" transform="translate(1708.245 -942.508)" fill="#fff"/>
    <path id="Path_1033" data-name="Path 1033" d="M-1645.757,863.723a3.687,3.687,0,0,1,.687.291q3.51,2.208,7,4.443c.894.572,1,1.245.378,2.21-.6.935-1.229,1.1-2.124.532q-3.531-2.233-7.054-4.48a1.269,1.269,0,0,1-.637-1.527A1.9,1.9,0,0,1-1645.757,863.723Z" transform="translate(1658.361 -863.723)" fill="#fff"/>
  </g>
</svg>
