<svg xmlns="http://www.w3.org/2000/svg" width="33.025" height="44.066" viewBox="0 0 33.025 44.066">
  <g id="Order_Processing" transform="translate(-4613.401 -2190.29)">
    <path id="Path_22118" data-name="Path 22118" d="M4618.909,2222.489c0,1.339-.007,2.567,0,3.794a4.16,4.16,0,0,0,4.462,4.458q6.535.016,13.068,0a4.161,4.161,0,0,0,4.477-4.443c.008-1.229,0-2.458,0-3.742a26.959,26.959,0,0,1,3.351.029,2.577,2.577,0,0,1,2.142,2.464c.021.256.014.515.014.773q0,15.906,0,31.811c0,2.41-.974,3.383-3.387,3.383q-13.154,0-26.309,0c-2.34,0-3.327-1-3.328-3.356q0-15.906,0-31.811c0-2.344,1.008-3.356,3.336-3.36Zm4.043,16.04c-.339-.411-.582-.73-.852-1.026a9.881,9.881,0,0,0-.856-.845,1.345,1.345,0,0,0-1.931.011,1.326,1.326,0,0,0,.014,1.928c.885.937,1.8,1.847,2.734,2.735a1.251,1.251,0,0,0,1.858.063q2.867-2.783,5.65-5.653a1.256,1.256,0,0,0-.1-1.851,1.292,1.292,0,0,0-1.8-.068,6.341,6.341,0,0,0-.624.59C4625.739,2235.73,4624.428,2237.047,4622.952,2238.529Zm.307,10.813c-.246-.024-.284-.016-.3-.031-.516-.5-1.026-1-1.545-1.489a1.386,1.386,0,1,0-1.951,1.929q1.2,1.233,2.431,2.432a1.413,1.413,0,0,0,2.308-.022c.84-.821,1.664-1.66,2.494-2.49.851-.851,1.706-1.7,2.552-2.554.778-.787.869-1.557.271-2.179-.62-.644-1.413-.554-2.24.261-.551.543-1.1,1.085-1.641,1.642C4624.8,2247.7,4623.986,2248.574,4623.258,2249.341Zm13.554-13.09c-.859,0-1.718-.011-2.578,0a1.4,1.4,0,0,0-1.56,1.351,1.378,1.378,0,0,0,1.521,1.388q2.577.025,5.156,0a1.391,1.391,0,0,0,1.56-1.351c.013-.834-.6-1.377-1.607-1.391C4638.474,2236.242,4637.643,2236.251,4636.812,2236.251Zm-.019,11.008c-.888,0-1.776-.019-2.664.005a1.369,1.369,0,1,0,0,2.732q2.664.033,5.328,0a1.369,1.369,0,1,0,0-2.732C4638.569,2247.24,4637.681,2247.259,4636.793,2247.259Z" transform="translate(0 -26.661)" fill="#fff"/>
    <path id="Path_22119" data-name="Path 22119" d="M4669.548,2201.334c-2.147,0-4.294.005-6.442,0-1.236,0-1.717-.482-1.723-1.71q-.012-2.448,0-4.9c.007-1.133.5-1.625,1.612-1.65a6.384,6.384,0,0,1,.687,0,2.783,2.783,0,0,0,2.891-1.253,3.958,3.958,0,0,1,6.667.675.925.925,0,0,0,.986.584c.714-.035,1.432-.023,2.147,0a1.37,1.37,0,0,1,1.513,1.482q.033,2.619,0,5.239a1.381,1.381,0,0,1-1.556,1.528C4674.072,2201.344,4671.811,2201.334,4669.548,2201.334Z" transform="translate(-39.725)" fill="#2f75a9"/>
  </g>
</svg>
