<svg xmlns="http://www.w3.org/2000/svg" width="29.373" height="30.298" viewBox="0 0 29.373 30.298">
  <g id="Retail_Ecommerce" transform="translate(-247.318 -459.327)">
    <path id="Path_1083" data-name="Path 1083" d="M376.316,587.91a7.41,7.41,0,1,1-7.394-7.477A7.422,7.422,0,0,1,376.316,587.91Zm-9.323,2.232c.181-.224.429-.14.645-.141,1.273-.007,2.546,0,3.819-.005a1.46,1.46,0,0,0,1.65-1.327c.21-.864.425-1.726.628-2.591.18-.768.028-.958-.755-.959-1.931,0-3.862-.021-5.792.014-.464.009-.633-.147-.7-.563-.051-.3-.072-.691-.458-.761a5,5,0,0,0-1.644-.01.489.489,0,0,0,.068.964,3.405,3.405,0,0,0,.572.008c.358-.038.514.087.6.46.259,1.134.562,2.258.87,3.38a.651.651,0,0,1-.191.761,1.075,1.075,0,0,0,.222,1.736c.3.17.4.257.3.638a.648.648,0,0,0,.652.828.678.678,0,0,0,.783-.657,2.6,2.6,0,0,0-.082-.6c.938,0,1.868.006,2.8,0,.285,0,.26.113.232.34-.07.563.212.925.676.938.483.014.769-.36.716-.963-.012-.141-.116-.275.123-.328.334-.074.533-.276.433-.64s-.421-.363-.724-.363c-1.591,0-3.182,0-4.773,0C367.438,590.288,367.185,590.387,366.993,590.142Z" transform="translate(-99.626 -105.669)" fill="#fff"/>
    <path id="Path_1084" data-name="Path 1084" d="M271.217,531.279a4.04,4.04,0,0,0,6.928.062c2.594,2.617,4.994,2.609,6.99-.049a4.041,4.041,0,0,0,3.918,1.953c.3-.028.239.167.24.318,0,1.123,0,2.246,0,3.427a10.251,10.251,0,0,0-2.575-.455c-.326-.009-.257-.224-.244-.394.046-.613-.24-.822-.834-.815-1.782.022-3.565.005-5.348.009-.737,0-.831.1-.833.862q0,1.369,0,2.738c0,.23-.059.491.148.658s.118.309,0,.473a8.211,8.211,0,0,0-1.558,5.2c.011.28-.082.394-.357.362a.941.941,0,0,0-.127,0c-1.333.032-1.333.032-1.333-1.3q0-4.011,0-8.022c0-.856-.107-.964-.935-.965q-2.1,0-4.2,0c-.927,0-.993.068-.993,1.029,0,2.865-.013,5.73.011,8.595,0,.511-.1.719-.653.678-.675-.051-1.358-.023-2.036-.007-.3.007-.4-.1-.4-.406q.011-5.794.008-11.587c0-.168-.084-.419.249-.389A4.079,4.079,0,0,0,271.217,531.279Z" transform="translate(-17.194 -62.781)" fill="#fff"/>
    <path id="Path_1085" data-name="Path 1085" d="M261.917,654.2c-4.741,0-9.382,0-14.022.007-.4,0-.551-.115-.562-.538-.052-1.943-.064-1.943,1.883-1.943,3.687,0,7.374.009,11.061-.01.51,0,.8.073.9.657A6.288,6.288,0,0,0,261.917,654.2Z" transform="translate(0 -167.868)" fill="#fff"/>
    <path id="Path_1086" data-name="Path 1086" d="M311.346,462.7c0,.955-.014,1.91.008,2.864.008.34-.105.43-.433.427-1.633-.014-3.267-.018-4.9,0-.407,0-.454-.13-.36-.481.516-1.921,1.018-3.845,1.523-5.769.069-.263.158-.426.5-.416,1.081.031,2.164.025,3.246,0,.348-.007.427.119.421.441C311.335,460.747,311.346,461.723,311.346,462.7Z" transform="translate(-50.87 0)" fill="#fff"/>
    <path id="Path_1087" data-name="Path 1087" d="M358.493,462.623c0-.933.012-1.867-.007-2.8-.007-.334.047-.493.44-.482,1.06.028,2.121.018,3.182,0,.3,0,.437.067.519.388.5,1.968,1.025,3.93,1.556,5.891.077.283.035.379-.272.377-1.7-.009-3.395-.014-5.092,0-.383,0-.328-.222-.328-.452Q358.494,464.087,358.493,462.623Z" transform="translate(-96.998 -0.012)" fill="#fff"/>
    <path id="Path_1088" data-name="Path 1088" d="M405.908,466.045c-1.884,0-3.645,0-5.405,0-.208,0-.342-.034-.407-.286-.542-2.107-1.1-4.209-1.67-6.361,1.273,0,2.481,0,3.69,0a.437.437,0,0,1,.458.251C403.661,461.749,404.759,463.845,405.908,466.045Z" transform="translate(-131.847 -0.061)" fill="#fff"/>
    <path id="Path_1089" data-name="Path 1089" d="M252.748,465.992c-.091-.231.041-.343.105-.467.992-1.915,2-3.823,2.981-5.742a.687.687,0,0,1,.722-.446c1.144.028,2.288.01,3.523.01-.3,1.133-.58,2.224-.866,3.314-.252.961-.51,1.922-.76,2.884-.059.227-.072.454-.409.453C256.271,465.987,254.5,465.992,252.748,465.992Z" transform="translate(-4.711 -0.008)" fill="#fff"/>
    <path id="Path_1090" data-name="Path 1090" d="M252.837,519.483c.828,0,1.656.017,2.483-.008.375-.011.426.1.327.44a2.976,2.976,0,0,1-5.673-.05c-.1-.359.024-.39.317-.386C251.14,519.49,251.988,519.483,252.837,519.483Z" transform="translate(-2.286 -52.481)" fill="#fff"/>
    <path id="Path_1091" data-name="Path 1091" d="M362.177,519.462c.806,0,1.613.009,2.419,0,.341-.006.509.011.361.446a2.977,2.977,0,0,1-5.634.055c-.129-.38-.074-.524.371-.506C360.522,519.486,361.35,519.462,362.177,519.462Z" transform="translate(-97.676 -52.461)" fill="#fff"/>
    <path id="Path_1092" data-name="Path 1092" d="M416.785,519.482c.806,0,1.613.017,2.418-.008.372-.011.43.1.33.438a2.976,2.976,0,0,1-5.672-.045c-.1-.353.015-.394.314-.39C415.045,519.49,415.915,519.482,416.785,519.482Z" transform="translate(-145.283 -52.48)" fill="#fff"/>
    <path id="Path_1093" data-name="Path 1093" d="M307.529,519.487c.8,0,1.607.015,2.41-.006.391-.01.542.062.393.494a2.978,2.978,0,0,1-5.628-.015c-.12-.364-.048-.49.351-.479C305.879,519.5,306.7,519.487,307.529,519.487Z" transform="translate(-50.026 -52.485)" fill="#fff"/>
    <path id="Path_1094" data-name="Path 1094" d="M384.134,612.745c.192.245.445.147.663.148,1.591.009,3.182.005,4.773,0,.3,0,.621-.009.724.363s-.1.566-.433.64c-.24.053-.136.187-.123.328.053.6-.233.977-.716.963-.464-.013-.747-.375-.676-.938.028-.227.053-.343-.232-.34-.93.01-1.86,0-2.8,0a2.6,2.6,0,0,1,.082.6.679.679,0,0,1-.783.657.648.648,0,0,1-.652-.828c.105-.381,0-.468-.3-.638a1.075,1.075,0,0,1-.222-1.736.651.651,0,0,0,.191-.76c-.308-1.122-.611-2.246-.87-3.38-.085-.373-.241-.5-.6-.46a3.444,3.444,0,0,1-.572-.008.489.489,0,0,1-.068-.964,5.006,5.006,0,0,1,1.644.01c.386.07.407.456.458.761.07.416.238.572.7.563,1.93-.035,3.861-.017,5.792-.014.783,0,.935.191.755.959-.2.865-.418,1.728-.627,2.591a1.46,1.46,0,0,1-1.65,1.326c-1.273.007-2.546,0-3.819.005C384.563,612.605,384.314,612.521,384.134,612.745Z" transform="translate(-116.767 -128.272)" fill="#aed640"/>
  </g>
</svg>
