<svg xmlns="http://www.w3.org/2000/svg" width="49.917" height="50.561" viewBox="0 0 49.917 50.561">
  <g id="Social_Media_Monitoring" transform="translate(1281.029 -886.996)">
    <path id="Path_15" data-name="Path 15" d="M-1231.243,898.623A11.609,11.609,0,0,1-1219.629,887a11.678,11.678,0,0,1,11.668,11.607,11.681,11.681,0,0,1-11.7,11.681A11.612,11.612,0,0,1-1231.243,898.623Z" transform="translate(-39.435 0)" fill="#aed640"/>
    <path id="Path_16" data-name="Path 16" d="M-1254.715,1034.209h-14.434c-2.6,0-5.194.013-7.791,0a3.86,3.86,0,0,1-4.082-4.117c-.012-2.6,0-5.194,0-7.791a3.525,3.525,0,0,1,1.918-3.327,41.453,41.453,0,0,1,19.724-4.935,1.559,1.559,0,0,1,.277.044c-.587,4.618-.284,9.245-.244,13.858C-1259.323,1030.986-1257.506,1032.962-1254.715,1034.209Z" transform="translate(0 -100.626)" fill="#aed640"/>
    <path id="Path_17" data-name="Path 17" d="M-1149.346,1026.33v3.324c.474,0,.945-.017,1.413,0a1.738,1.738,0,0,1,1.831,1.716,1.67,1.67,0,0,1-1.81,1.6q-3.221.029-6.442,0a1.6,1.6,0,0,1-1.708-1.573,1.637,1.637,0,0,1,1.667-1.738c.509-.035,1.023-.006,1.589-.006v-3.326h-4.778c-.762,0-1.524.01-2.286,0a3.789,3.789,0,0,1-3.972-3.8q-.113-5.608,0-11.22a3.729,3.729,0,0,1,3.873-3.789q8.883-.065,17.766,0a3.771,3.771,0,0,1,3.854,4.017q.027,5.4,0,10.806a3.824,3.824,0,0,1-4,3.984C-1144.657,1026.347-1146.969,1026.33-1149.346,1026.33Zm-1.843-3.331c2.8,0,5.606-.027,8.408.016.874.013,1.133-.3,1.123-1.148q-.056-4.982,0-9.965c.009-.827-.3-1.085-1.093-1.082q-8.356.03-16.713,0c-.818,0-1.089.309-1.082,1.1.026,3.322.031,6.644,0,9.965-.009.868.312,1.138,1.16,1.126C-1156.657,1022.974-1153.923,1023-1151.189,1023Z" transform="translate(-92.779 -95.435)" fill="#aed640"/>
  </g>
</svg>
