<svg xmlns="http://www.w3.org/2000/svg" width="37.923" height="43.335" viewBox="0 0 37.923 43.335">
  <g id="Text" transform="translate(-571.039 -2062.833)">
    <g id="Group_48" data-name="Group 48" transform="translate(-322.943 1051.861)">
      <path id="Path_5" data-name="Path 5" d="M921.065,1019.083h-2.677v-2.636H896.736v29.67h21.583v-2.578H921a4.566,4.566,0,0,1,.059.533c0,2.425.012,4.851,0,7.276a2.721,2.721,0,0,1-2.953,2.953q-10.576.013-21.152,0a2.717,2.717,0,0,1-2.97-2.935q-.011-18.74,0-37.481a2.7,2.7,0,0,1,2.914-2.9q10.618-.015,21.236,0a2.713,2.713,0,0,1,2.923,2.9C921.078,1015.59,921.065,1017.3,921.065,1019.083Z" fill="#aed640"/>
      <path id="Path_6" data-name="Path 6" d="M995.366,1091.215c-.94,0-1.756.012-2.571,0a2.675,2.675,0,0,1-2.837-2.8q-.03-5.331,0-10.662a2.665,2.665,0,0,1,2.782-2.776q8.039-.028,16.078,0a2.642,2.642,0,0,1,2.789,2.758q.035,5.373,0,10.746a2.64,2.64,0,0,1-2.731,2.729c-1.748.029-3.5.036-5.246,0a2.678,2.678,0,0,0-1.852.6c-1.3,1.035-2.655,2.005-3.983,3.005a1.467,1.467,0,0,1-1.638.321,1.488,1.488,0,0,1-.794-1.549C995.378,1092.827,995.366,1092.071,995.366,1091.215Zm1.4-9.472a1.37,1.37,0,0,0-1.353,1.327,1.394,1.394,0,0,0,1.4,1.368,1.348,1.348,0,0,0-.051-2.695Zm8.1,0a1.372,1.372,0,0,0-1.331,1.369,1.4,1.4,0,0,0,1.384,1.326,1.348,1.348,0,0,0-.053-2.694Z" transform="translate(-79.72 -53.158)" fill="#aed640"/>
    </g>
  </g>
</svg>
