<svg xmlns="http://www.w3.org/2000/svg" width="27.926" height="27.864" viewBox="0 0 27.926 27.864">
  <g id="Travel_Tourism" transform="translate(0)">
    <path id="Path_1043" data-name="Path 1043" d="M-714.836,1424.7v-11.318c-.1-.017-.183-.033-.269-.045-.391-.057-.665-.259-.636-.674.031-.444.35-.6.764-.6h21.866c.4,0,.743.114.791.569.051.488-.267.671-.7.717-.054.006-.106.022-.184.038v11.31c.187.035.378.063.566.106a1.221,1.221,0,0,1,.969,1.163,1.211,1.211,0,0,1-.9,1.266,2.279,2.279,0,0,1-.592.072q-10.851.005-21.7,0c-1.066,0-1.693-.684-1.483-1.591C-716.216,1425.129-715.821,1424.858-714.836,1424.7Zm2.578.008h3.736v-11.32h-3.736Zm12.719-11.34v11.341h3.717v-11.341Zm-6.355,11.342h3.721v-11.326h-3.721Z" transform="translate(717.984 -1402.733)" fill="#fff"/>
    <path id="Path_1044" data-name="Path 1044" d="M-717.071,1334.783q-6.107,0-12.214,0a3.561,3.561,0,0,1-.7-.052,1.185,1.185,0,0,1-.983-1.036,1.2,1.2,0,0,1,.58-1.259,2.938,2.938,0,0,1,.437-.221c4-1.8,8.014-3.592,12.011-5.412a2,2,0,0,1,1.812-.005q6.068,2.767,12.16,5.48a1.33,1.33,0,0,1,.9,1.125,1.105,1.105,0,0,1-.58,1.148,2.379,2.379,0,0,1-1.042.225C-708.82,1334.788-712.945,1334.783-717.071,1334.783Z" transform="translate(730.992 -1326.582)" fill="#aed640"/>
    <path id="Path_1045" data-name="Path 1045" d="M-716.968,1558.739h12.211c1.089,0,1.679.445,1.681,1.263s-.611,1.272-1.682,1.272q-12.292,0-24.585,0a2.783,2.783,0,0,1-.752-.074,1.235,1.235,0,0,1-.891-1.332,1.244,1.244,0,0,1,1.154-1.112c.2-.017.4-.013.6-.013Z" transform="translate(730.994 -1533.41)" fill="#fff"/>
  </g>
</svg>
