<svg xmlns="http://www.w3.org/2000/svg" width="38.349" height="38.059" viewBox="0 0 38.349 38.059">
  <g id="Troubleshooting" transform="translate(-5051.328 -2200.707)">
    <path id="Path_22120" data-name="Path 22120" d="M5134.2,2222.389h-.167c-2.1-.011-1.64.165-2.4-1.584a1.582,1.582,0,0,0-2.2-.886c-1.858.8-1.382.926-2.849-.566a.464.464,0,0,0-.059-.059,2.035,2.035,0,0,1-.645-3.1,1.446,1.446,0,0,0-.827-2.008,1.993,1.993,0,0,1-1.671-2.614,1.475,1.475,0,0,0,0-.25c.017-2-.17-1.527,1.528-2.247a1.589,1.589,0,0,0,.951-2.3c-.762-1.783-.91-1.272.508-2.725a1,1,0,0,0,.118-.119,2.036,2.036,0,0,1,3.034-.708,1.546,1.546,0,0,0,2.089-.872c.786-1.872.42-1.618,2.45-1.638h.334c1.753,0,1.753,0,2.423,1.609a1.629,1.629,0,0,0,2.261.923c1.818-.7,1.29-.9,2.742.535,1.427,1.407,1.42,1.414.668,3.258a1.527,1.527,0,0,0,.791,1.907,1.877,1.877,0,0,1,1.608,2.512.218.218,0,0,0,0,.083,1.964,1.964,0,0,1-1.677,2.589,1.506,1.506,0,0,0-.814,2.022c.877,2.012.957,1.448-.524,3.022-.019.02-.039.04-.058.06-1.272,1.314-1.272,1.314-3,.634a1.622,1.622,0,0,0-2.088.886C5135.935,2222.579,5136.449,2222.373,5134.2,2222.389Zm-4.927-10.8a4.908,4.908,0,0,0,9.815-.016,4.942,4.942,0,0,0-4.975-4.9A4.861,4.861,0,0,0,5129.276,2211.592Z" transform="translate(-59.958)" fill="#fff"/>
    <path id="Path_22121" data-name="Path 22121" d="M5095.945,2337.794c2.348.162,4.7.255,7.032.516a3.178,3.178,0,0,1,2.512,1.87,1.983,1.983,0,0,0,1.9,1.133c1.225.006,2.45,0,3.675.007,1.284,0,1.9.449,1.883,1.365-.015.881-.62,1.317-1.84,1.319-2.172,0-4.343-.006-6.515.01a1.614,1.614,0,0,0-.861.2.711.711,0,0,0-.131.663.741.741,0,0,0,.553.386c2.616.019,5.234.052,7.848-.04.535-.019,1.063-.522,1.575-.834a8.439,8.439,0,0,1,1.334-.886c3.238-1.177,6.493-2.31,9.746-3.445.976-.341,1.657-.1,1.974.649a1.434,1.434,0,0,1-.759,1.887q-4.521,2.843-9.05,5.673c-1.98,1.24-3.966,2.471-5.941,3.72a5.29,5.29,0,0,1-5.832.135c-2.855-1.616-5.727-3.2-8.572-4.839a1.248,1.248,0,0,1-.6-.843c-.044-2.7-.025-5.4-.021-8.1A5.425,5.425,0,0,1,5095.945,2337.794Z" transform="translate(-37.08 -114.172)" fill="#fff"/>
    <path id="Path_22122" data-name="Path 22122" d="M5057.479,2331.787q0,2.925,0,5.849c0,.989-.132,1.131-1.087,1.137-1.337.009-2.674-.016-4.01.009-.745.014-1.055-.293-1.052-1.042q.022-5.933,0-11.865c0-.737.283-1.073,1.037-1.061,1.393.024,2.785.016,4.178,0,.662-.006.953.267.945.953C5057.463,2327.776,5057.479,2329.781,5057.479,2331.787Z" transform="translate(0 -103.362)" fill="#fff"/>
  </g>
</svg>
