<svg xmlns="http://www.w3.org/2000/svg" width="29.855" height="45.485" viewBox="0 0 29.855 45.485">
  <g id="Voice" transform="translate(218.043 -949.881)">
    <path id="Path_9" data-name="Path 9" d="M-185.441,965.136c0-2.218-.089-4.441.019-6.654a9.053,9.053,0,0,1,8.147-8.545,9.11,9.11,0,0,1,9.686,6.526,9.171,9.171,0,0,1,.365,2.442c.036,4.141.073,8.283,0,12.423a9.018,9.018,0,0,1-7.038,8.783,9.124,9.124,0,0,1-10.137-4.6,9.282,9.282,0,0,1-1.072-4.522c.01-1.952,0-3.9,0-5.857Z" transform="translate(-26.784 0)" fill="#aed640"/>
    <path id="Path_10" data-name="Path 10" d="M-204.605,1077.48a34.98,34.98,0,0,1-4.432-1.388,14.6,14.6,0,0,1-9-13.263c-.066-1.143.454-1.788,1.339-1.825.9-.038,1.462.636,1.5,1.8a12.076,12.076,0,0,0,12.091,11.707,12.073,12.073,0,0,0,12.072-11.726c0-.089,0-.178.006-.266a1.45,1.45,0,0,1,1.507-1.511,1.435,1.435,0,0,1,1.334,1.576c.141,6.94-5.523,13.552-12.489,14.58-.319.047-.637.106-.978.163v6.583c1.746,0,3.453,0,5.161,0a6.755,6.755,0,0,1,.975.023,1.406,1.406,0,0,1,1.2,1.431,1.394,1.394,0,0,1-1.18,1.363,2.831,2.831,0,0,1-.619.026h-14.028c-.059,0-.118,0-.178,0a1.475,1.475,0,0,1-1.605-1.413,1.444,1.444,0,0,1,1.585-1.427c1.891-.015,3.782,0,5.737,0Z" transform="translate(0 -91.39)" fill="#aed640"/>
  </g>
</svg>
